<svg width="800" height="600" viewBox="0 0 800 600" fill="none" xmlns="http://www.w3.org/2000/svg">
  <!-- Fondo con bordes redondeados estilo Windows 11 -->
  <rect width="800" height="600" rx="12" fill="#F3F3F3"/>
  <rect x="20" y="20" width="760" height="560" rx="8" fill="white" stroke="#E5E5E5" stroke-width="1"/>

  <!-- Título -->
  <text x="40" y="60" font-family="Segoe UI, Arial, sans-serif" font-size="24" font-weight="600" fill="#242424">OneDrive Color Guide: Productividad</text>
  <text x="40" y="85" font-family="Segoe UI, Arial, sans-serif" font-size="14" fill="#616161">Referencia rápida de estados y acciones clave</text>

  <!-- Cabecera de Tabla -->
  <rect x="40" y="110" width="720" height="40" rx="4" fill="#F9F9F9"/>
  <text x="60" y="135" font-family="Segoe UI, Arial, sans-serif" font-size="12" font-weight="bold" fill="#616161">COLOR / ESTADO</text>
  <text x="220" y="135" font-family="Segoe UI, Arial, sans-serif" font-size="12" font-weight="bold" fill="#616161">USO SUGERIDO</text>
  <text x="500" y="135" font-family="Segoe UI, Arial, sans-serif" font-size="12" font-weight="bold" fill="#616161">ACCIÓN CLAVE</text>

  <!-- Filas (Helper function style for logic) -->
  
  <!-- AZUL -->
  <g transform="translate(0, 160)">
    <path d="M60 10 H100 V35 H60 V10 Z" fill="#0078D4" rx="2"/> <!-- Folder Shape Simplificada -->
    <path d="M60 5 H75 L80 10 H60 V5 Z" fill="#0078D4" opacity="0.8"/>
    <text x="110" y="25" font-family="Segoe UI, Arial, sans-serif" font-size="14" font-weight="bold" fill="#0078D4">Azul</text>
    <text x="220" y="25" font-family="Segoe UI, Arial, sans-serif" font-size="13" fill="#242424">Proyectos Activos &amp; Código</text>
    <rect x="500" y="8" width="240" height="24" rx="12" fill="#E1F0FE"/>
    <text x="515" y="24" font-family="Segoe UI, Arial, sans-serif" font-size="12" font-weight="600" fill="#005A9E">Consulta y Evolución</text>
  </g>

  <!-- VERDE -->
  <g transform="translate(0, 210)">
    <path d="M60 10 H100 V35 H60 V10 Z" fill="#107C10" rx="2"/>
    <path d="M60 5 H75 L80 10 H60 V5 Z" fill="#107C10" opacity="0.8"/>
    <text x="110" y="25" font-family="Segoe UI, Arial, sans-serif" font-size="14" font-weight="bold" fill="#107C10">Verde</text>
    <text x="220" y="25" font-family="Segoe UI, Arial, sans-serif" font-size="13" fill="#242424">Documentación Finalizada</text>
    <rect x="500" y="8" width="240" height="24" rx="12" fill="#DFF6DD"/>
    <text x="515" y="24" font-family="Segoe UI, Arial, sans-serif" font-size="12" font-weight="600" fill="#107C10">Compartir sin Revisión</text>
  </g>

  <!-- ROJO -->
  <g transform="translate(0, 260)">
    <path d="M60 10 H100 V35 H60 V10 Z" fill="#D83B01" rx="2"/>
    <path d="M60 5 H75 L80 10 H60 V5 Z" fill="#D83B01" opacity="0.8"/>
    <text x="110" y="25" font-family="Segoe UI, Arial, sans-serif" font-size="14" font-weight="bold" fill="#D83B01">Rojo</text>
    <text x="220" y="25" font-family="Segoe UI, Arial, sans-serif" font-size="13" fill="#242424">Carpetas Críticas &amp; Urgencias</text>
    <rect x="500" y="8" width="240" height="24" rx="12" fill="#FDE7E9"/>
    <text x="515" y="24" font-family="Segoe UI, Arial, sans-serif" font-size="12" font-weight="600" fill="#A4262C">Acción Prioritaria</text>
  </g>

  <!-- MORADO -->
  <g transform="translate(0, 310)">
    <path d="M60 10 H100 V35 H60 V10 Z" fill="#5C2D91" rx="2"/>
    <path d="M60 5 H75 L80 10 H60 V5 Z" fill="#5C2D91" opacity="0.8"/>
    <text x="110" y="25" font-family="Segoe UI, Arial, sans-serif" font-size="14" font-weight="bold" fill="#5C2D91">Morado</text>
    <text x="220" y="25" font-family="Segoe UI, Arial, sans-serif" font-size="13" fill="#242424">Proyectos Creativos &amp; Ideas</text>
    <rect x="500" y="8" width="240" height="24" rx="12" fill="#EFE2FE"/>
    <text x="515" y="24" font-family="Segoe UI, Arial, sans-serif" font-size="12" font-weight="600" fill="#5C2D91">Brainstorming y Pruebas</text>
  </g>

  <!-- NARANJA -->
  <g transform="translate(0, 360)">
    <path d="M60 10 H100 V35 H60 V10 Z" fill="#F7630C" rx="2"/>
    <path d="M60 5 H75 L80 10 H60 V5 Z" fill="#F7630C" opacity="0.8"/>
    <text x="110" y="25" font-family="Segoe UI, Arial, sans-serif" font-size="14" font-weight="bold" fill="#F7630C">Naranja</text>
    <text x="220" y="25" font-family="Segoe UI, Arial, sans-serif" font-size="13" fill="#242424">Material Temporal &amp; Staging</text>
    <rect x="500" y="8" width="240" height="24" rx="12" fill="#FFF4CE"/>
    <text x="515" y="24" font-family="Segoe UI, Arial, sans-serif" font-size="12" font-weight="600" fill="#8E562E">Revisión y Transición</text>
  </g>

  <!-- GRIS -->
  <g transform="translate(0, 410)">
    <path d="M60 10 H100 V35 H60 V10 Z" fill="#737373" rx="2"/>
    <path d="M60 5 H75 L80 10 H60 V5 Z" fill="#737373" opacity="0.8"/>
    <text x="110" y="25" font-family="Segoe UI, Arial, sans-serif" font-size="14" font-weight="bold" fill="#737373">Gris</text>
    <text x="220" y="25" font-family="Segoe UI, Arial, sans-serif" font-size="13" fill="#242424">Archivados &amp; Históricos</text>
    <rect x="500" y="8" width="240" height="24" rx="12" fill="#F3F2F1"/>
    <text x="515" y="24" font-family="Segoe UI, Arial, sans-serif" font-size="12" font-weight="600" fill="#323130">Almacenamiento Pasivo</text>
  </g>

  <!-- AMARILLO -->
  <g transform="translate(0, 460)">
    <path d="M60 10 H100 V35 H60 V10 Z" fill="#FFB900" rx="2"/>
    <path d="M60 5 H75 L80 10 H60 V5 Z" fill="#FFB900" opacity="0.8"/>
    <text x="110" y="25" font-family="Segoe UI, Arial, sans-serif" font-size="14" font-weight="bold" fill="#C19C00">Amarillo</text>
    <text x="220" y="25" font-family="Segoe UI, Arial, sans-serif" font-size="13" fill="#242424">Recursos Compartidos &amp; General</text>
    <rect x="500" y="8" width="240" height="24" rx="12" fill="#FFF9E5"/>
    <text x="515" y="24" font-family="Segoe UI, Arial, sans-serif" font-size="12" font-weight="600" fill="#8A7000">Punto de Acceso Común</text>
  </g>

  <!-- Footer -->
  <text x="40" y="560" font-family="Segoe UI, Arial, sans-serif" font-size="10" fill="#A1A1A1">OneDriveColorGuide | Sistema Narrativo de Colores | 2026</text>
</svg>
